<svg class="css-1shw6pr" data-test-id="cf-ui-icon" viewBox="0 0 80 68" aria-hidden="true" role="img"><path fill="#E8F5FF" d="M2 26a4 4 0 0 1 4-4h68a4 4 0 0 1 4 4v16a4 4 0 0 1-4 4H6a4 4 0 0 1-4-4V26Z"></path><path fill="currentColor" fill-rule="evenodd" d="M74 23H6a3 3 0 0 0-3 3v16a3 3 0 0 0 3 3h68a3 3 0 0 0 3-3V26a3 3 0 0 0-3-3ZM6 22a4 4 0 0 0-4 4v16a4 4 0 0 0 4 4h68a4 4 0 0 0 4-4V26a4 4 0 0 0-4-4H6Z"></path><path fill="currentColor" d="M8.959 39.855c-1.27 0-2.08-.57-2.212-1.435l.01-.005h.879l.005.005c.092.4.561.683 1.318.683.942 0 1.504-.444 1.504-1.22v-1.065h-.078c-.332.581-.928.909-1.65.909-1.363 0-2.208-1.055-2.208-2.53v-.01c0-1.474.85-2.543 2.227-2.543.742 0 1.318.366 1.64.962h.06v-.87h.849v5.19c0 1.177-.909 1.93-2.344 1.93Zm-.04-2.88c.977 0 1.563-.733 1.563-1.778v-.01c0-1.044-.59-1.791-1.562-1.791-.977 0-1.524.747-1.524 1.791v.01c0 1.045.547 1.778 1.524 1.778ZM15.033 38.093c-1.504 0-2.412-1.055-2.412-2.705v-.005c0-1.626.928-2.74 2.358-2.74 1.431 0 2.3 1.065 2.3 2.637v.332H13.49c.025 1.09.625 1.724 1.563 1.724.713 0 1.152-.337 1.294-.654l.02-.044h.849l-.01.039c-.18.713-.933 1.416-2.173 1.416Zm-.058-4.693c-.782 0-1.377.533-1.47 1.534h2.91c-.088-1.04-.664-1.534-1.44-1.534ZM18.598 38v-5.264h.85v.791h.077c.264-.556.757-.883 1.534-.883 1.181 0 1.84.698 1.84 1.948V38h-.85v-3.203c0-.947-.39-1.401-1.23-1.401s-1.372.566-1.372 1.489V38h-.85ZM26.586 38.093c-1.504 0-2.412-1.055-2.412-2.705v-.005c0-1.626.928-2.74 2.358-2.74 1.43 0 2.3 1.065 2.3 2.637v.332h-3.789c.024 1.09.625 1.724 1.563 1.724.712 0 1.152-.337 1.293-.654l.02-.044h.85l-.01.039c-.18.713-.933 1.416-2.173 1.416Zm-.059-4.693c-.78 0-1.377.533-1.47 1.534h2.91c-.087-1.04-.663-1.534-1.44-1.534ZM30.15 38v-5.264H31v.782h.078c.2-.552.694-.874 1.406-.874.161 0 .342.02.425.034v.825a3.057 3.057 0 0 0-.522-.049c-.81 0-1.387.513-1.387 1.284V38h-.85ZM35.404 38.093c-1 0-1.758-.606-1.758-1.563v-.01c0-.937.694-1.479 1.92-1.552l1.508-.093v-.478c0-.65-.395-1.002-1.181-1.002-.63 0-1.045.235-1.182.645l-.005.015h-.85l.005-.03c.137-.825.938-1.381 2.06-1.381 1.285 0 2.003.659 2.003 1.753V38h-.85v-.776h-.078c-.332.561-.884.869-1.592.869Zm-.888-1.582c0 .532.454.844 1.064.844.864 0 1.494-.566 1.494-1.318v-.478l-1.406.088c-.8.048-1.152.331-1.152.854v.01ZM41.347 38.04c-1.084 0-1.538-.401-1.538-1.407v-3.194h-.83v-.703h.83v-1.362h.879v1.362h1.152v.704h-1.153v2.978c0 .62.215.87.762.87.152 0 .235-.006.39-.02v.722c-.165.03-.326.05-.492.05ZM45.18 38.093c-1.504 0-2.412-1.055-2.412-2.705v-.005c0-1.626.927-2.74 2.358-2.74 1.43 0 2.3 1.065 2.3 2.637v.332h-3.79c.025 1.09.626 1.724 1.563 1.724.713 0 1.153-.337 1.294-.654l.02-.044h.85l-.01.039c-.181.713-.933 1.416-2.173 1.416ZM45.12 33.4c-.781 0-1.377.533-1.47 1.534h2.91c-.087-1.04-.663-1.534-1.44-1.534ZM50.688 38.093c-1.334 0-2.208-1.08-2.208-2.72v-.01c0-1.65.87-2.72 2.208-2.72.722 0 1.352.362 1.64.923h.078v-2.92h.85V38h-.85v-.84h-.078c-.322.586-.908.933-1.64.933Zm.195-.752c.957 0 1.543-.752 1.543-1.968v-.01c0-1.215-.586-1.968-1.543-1.968-.962 0-1.533.743-1.533 1.968v.01c0 1.226.57 1.968 1.533 1.968ZM54.813 35.559v-.791h3.282v.79h-3.282ZM61.278 38.04c-1.084 0-1.538-.401-1.538-1.407v-3.194h-.83v-.703h.83v-1.362h.88v1.362h1.152v.704h-1.153v2.978c0 .62.215.87.762.87.151 0 .234-.006.39-.02v.722c-.166.03-.327.05-.493.05ZM65.111 38.093c-1.504 0-2.412-1.055-2.412-2.705v-.005c0-1.626.928-2.74 2.359-2.74 1.43 0 2.3 1.065 2.3 2.637v.332h-3.79c.025 1.09.625 1.724 1.563 1.724.713 0 1.152-.337 1.294-.654l.02-.044h.849l-.01.039c-.18.713-.932 1.416-2.173 1.416Zm-.058-4.693c-.781 0-1.377.533-1.47 1.534h2.91c-.088-1.04-.664-1.534-1.44-1.534ZM70.121 38.093c-1 0-1.758-.606-1.758-1.563v-.01c0-.937.694-1.479 1.92-1.552l1.508-.093v-.478c0-.65-.395-1.002-1.182-1.002-.63 0-1.044.235-1.181.645l-.005.015h-.85l.005-.03c.137-.825.938-1.381 2.06-1.381 1.285 0 2.003.659 2.003 1.753V38h-.85v-.776h-.078c-.332.561-.884.869-1.592.869Zm-.889-1.582c0 .532.454.844 1.065.844.864 0 1.494-.566 1.494-1.318v-.478l-1.406.088c-.801.048-1.153.331-1.153.854v.01Z"></path></svg>